<svg width="1920" height="305" viewBox="0 0 1920 305" fill="none" xmlns="http://www.w3.org/2000/svg">
<path d="M1736.23 23.541C1736.23 26.7247 1696.4 19.6156 1696.4 23.7366C1696.4 21.6413 1657.11 26.533 1657.11 28.3224C1657.11 30.5649 1627.29 29.738 1627.29 35.3134C1627.29 28.8569 1591.76 26.5466 1591.76 32.4085C1591.76 39.4615 1564.75 41.6343 1564.75 38.0594C1564.75 43.445 1536.05 29.2326 1536.05 34.2947C1536.05 33.6208 1504.94 40.8442 1504.94 40.6428C1504.94 40.1431 1478.32 33.8261 1478.32 32.4066C1478.32 34.9725 1448.22 33.8474 1448.22 32.5189C1448.22 26.6744 1417.19 31.7055 1417.19 28.4754C1417.19 29.9123 1383.93 28.8298 1383.93 28.824C1383.93 27.2883 1352.33 28.9789 1352.33 25.9036C1352.33 32.5266 1320.27 16.7998 1320.27 23.8838C1320.27 22.015 1292.35 11.5711 1292.35 13.7091C1292.35 17.1407 1258.58 12.4058 1258.58 15.0763C1258.58 17.5358 1226.19 16.4745 1226.19 13.7014C1226.19 16.9083 1197.57 2.62035 1197.57 4.90549C1197.57 3.89267 1165.17 6.23397 1165.17 5.36058C1165.17 1.53588 1134.23 -0.867391 1134.23 3.10255C1134.23 4.94035 1102.84 9.36927 1102.84 3.32527C1102.84 3.86363 1071.74 3.97207 1071.74 0.807737C1071.74 -2.1184 1037.85 4.03598 1037.85 1.55525C1037.85 3.3427 1006.43 6.10812 1006.43 7.33009C1006.43 8.28481 976.357 14.8962 976.357 13.8931C976.357 14.1623 938.354 15.9729 938.354 12.0669C938.354 9.21049 909.346 20.1036 909.346 19.9022C909.346 19.6059 884.082 29.4359 884.082 31.4693C884.082 30.7702 852.456 38.0788 852.456 36.942C852.456 37.8909 817.364 35.2417 817.364 37.7282C817.364 39.2639 783.41 38.1543 783.41 37.8677C783.41 37.7476 750.909 46.0012 750.909 47.5292C750.909 48.3929 717.844 52.4306 717.844 51.0111C717.844 51.1854 681.934 47.7674 681.934 49.6729C681.934 51.3229 659.754 61.6467 659.754 62.5123C659.754 65.055 627.093 66.5597 627.093 66.7243C627.093 64.0151 592.658 69.1683 592.658 68.1903C592.658 66.1472 559.26 65.3145 559.26 64.5631C559.26 63.5135 524.865 69.8286 524.865 69.848C524.865 72.0731 495.147 61.8248 495.147 61.8733C495.147 61.6079 458.25 56.8653 458.25 60.994C458.25 62.032 431.812 51.4449 431.812 50.3178C431.812 45.9722 401.507 38.2046 401.507 43.1525C401.507 36.8219 374.647 47.2251 374.647 46.5725C374.647 46.5396 345.644 43.7006 345.644 45.9993C345.644 44.969 316.285 46.6093 316.285 44.8025C316.285 40.3116 283.029 51.6598 283.029 54.0689C283.029 55.6608 248.661 41.7698 248.661 49.6264C248.661 56.6891 215.947 47.7519 215.947 44.5817C215.947 46.3634 181.068 41.8415 181.068 43.2377C181.068 45.8908 150.834 38.9715 150.834 37.0446C150.834 39.2852 118.262 32.1548 118.262 34.4225C118.262 38.1291 89.5039 19.4394 89.5039 24.3486C89.5039 23.6863 57.1052 23.2873 57.1052 20.8666C57.1052 28.3166 23.3109 22.6328 23.3109 20.6032C23.3109 20.4541 -11.7902 25.1019 -11.7902 23.7637C-11.7902 20.2973 -43.491 15.0221 -43.491 18.9436C-43.491 18.2716 -67.2622 18.353 -67.2622 20.9015C-67.2622 21.6819 -87.6952 31.1633 -87.6952 27.3812C-87.6952 26.6259 -99.4252 38.6791 -99.4252 39.7326C-99.4252 40.025 -112.253 55.684 -112.253 53.7571C-112.253 53.1859 -104.59 69.2806 -104.59 67.7701C-104.59 65.0996 -114.262 81.4809 -114.262 81.0781C-114.262 80.6695 -113.778 93.6425 -113.778 94.9652C-113.778 95.7359 -136.153 105.61 -136.153 107.094C-136.153 106.811 -131.517 121.322 -131.517 121.322L-138.549 134.62L-136.433 148.552L-158.24 161.031L-150.057 175.166L-142.314 188.803L-162 202.671L-155.573 216.428L-144.309 229.552L-137.46 243.129L-111.377 254.086L-106.248 269.598L-77.6942 279.376L-73.485 295.149L-46.0735 305.971L-34.2324 318.022L-26.9872 331.39L6.87381 332.837L38.8412 339.996L71.4267 334.419L103.212 341.58L135.437 341.729L167.671 341.754L200.097 338.65L232.02 343.726L264.285 343.234L296.399 345.254L328.691 344.357L361.334 337.484L393.439 339.647L425.42 343.966L457.637 344.295L490.026 341.479L522.19 342.759L554.486 341.528L586.569 344.322L618.594 348.362L651.1 342.936L683.045 348.807L715.528 343.505L747.82 342.084L779.738 349.09L812.293 341.454L844.336 345.881L876.405 349.95L908.764 346.468L941.052 344.659L973.281 344.32L1005.48 345.203L1037.5 352.167L1069.74 351.952L1102.08 347.521L1134.39 343.515L1166.54 346.702L1198.69 351.22L1230.91 351.894L1263.22 344.557L1295.4 348.718L1327.63 348.763L1359.85 348.695L1392.07 345.856L1424.32 353L1456.5 345.043L1488.71 345.626L1521 351.189L1553.23 350.548L1585.38 346.607L1617.63 348.101L1649.88 349.013L1681.97 344.464L1714.33 348.453L1744.66 346.937L1775.16 347.186L1805.67 346.503L1833.57 339.097L1864.66 339.709L1894.4 336.621L1922.4 331.115L1942.94 320.938L1970.07 314.124L1992.44 304.299L2000.75 290.988L2007.94 278.038L2003.12 264.315L2010.61 251.675L2009.86 238.567L2010.61 225.466L2015.7 211.761L2022.2 198.071L2025.57 184.318L2027.68 170.535L2028.86 156.734L2033 142.907L2014.4 129.248L2017.95 115.466L2017.58 101.712L2010.73 88.1853L2025.56 73.634L2021.18 59.8515C2021.18 59.8515 2009.55 43.4237 2009.55 43.9059C2009.55 43.2319 1988.97 29.2113 1988.97 30.6095C1988.97 30.7353 1960.72 20.9247 1960.72 23.8663C1960.72 24.1936 1931.65 28.7116 1931.65 30.1815C1931.65 32.8404 1899.28 34.1185 1899.28 34.1011C1899.28 29.647 1866.36 27.4451 1866.36 30.0362C1866.36 29.4688 1833.95 28.0009 1833.95 28.4327C1833.95 23.5081 1800.95 35.9176 1800.95 30.3054C1800.95 33.8687 1769.09 23.9671 1769.09 24.6081C1769.09 26.4555 1736.23 26.1108 1736.23 23.541Z" fill="#191a18"/>
<path d="M1820.95 56.3094C1820.95 56.0731 1791.4 46.1468 1791.4 51.0931C1791.4 48.3837 1759.94 56.21 1759.94 49.4881C1759.94 46.0269 1730.68 42.1362 1730.68 45.8431C1730.68 47.6656 1700.74 43.2031 1700.74 48.4193C1700.74 47.06 1671.42 50.3581 1671.42 52.9906C1671.42 50.6281 1641.04 54.5281 1641.04 58.4975C1641.04 60.6612 1605.3 53.4968 1605.3 55.3212C1605.3 49.82 1574.38 55.8181 1574.38 58.775C1574.38 58.1037 1543.03 58.9175 1543.03 63.7381C1543.03 63.4381 1509.48 67.8087 1509.48 67.5968C1509.48 66.1531 1476.35 64.1525 1476.35 64.2819C1476.35 67.9775 1449.12 58.8594 1449.12 59.9619C1449.12 58.6456 1420.75 55.4712 1420.75 57.59C1420.75 56.3356 1397.62 49.7319 1397.62 49.4881C1397.62 50.0862 1366.02 44.225 1366.02 45.3687C1366.02 44.8531 1336.58 39.14 1336.58 37.4562C1336.58 41.4893 1304 35.33 1304 34.3306C1304 31.4019 1269.09 35.8025 1269.09 36.6631C1269.09 40.8612 1237.85 24.9256 1237.85 31.0531C1237.85 31.145 1203.77 34.5237 1203.77 32.4368C1203.77 30.17 1171.41 31.8162 1171.41 30.4756C1171.41 29.7256 1140.51 20.1518 1140.51 23.1143C1140.51 22.7918 1106.92 24.0669 1106.92 24.7494C1106.92 31.2725 1074.1 30.0912 1074.1 29.045C1074.1 31.445 1039.71 22.8031 1039.71 23.6862C1039.71 22.0381 1007.72 30.89 1007.72 28.5931C1007.72 30.3143 974.284 29.585 974.284 30.0575C974.284 28.4262 942.773 35.5175 942.773 34.7431C942.773 36.8862 914.262 45.3875 914.262 42.5918C914.262 41.3 885.511 49.9381 885.511 49.5369C885.511 48.6987 854.542 50.7106 854.542 54.245C854.542 52.8575 819.644 57.035 819.644 55.8312C819.644 55.9025 798.956 67.6156 798.956 69.29C798.956 65.7256 767.444 70.6006 767.444 73.8406C767.444 72.05 738.902 79.025 738.902 80.7856C738.902 83.4443 707.191 78.7925 707.191 79.7469C707.191 78.0031 685.102 90.0481 685.102 85.7487C685.102 89.9131 659.947 87.0125 659.947 86.6806C659.947 86.4912 627.018 91.28 627.018 93.3181C627.018 93.8075 600.187 82.655 600.187 82.625C600.187 80.8062 568.302 78.1081 568.302 79.5912C568.302 82.3981 535.16 84.7756 535.16 82.4431C535.16 83.6787 503.156 81.2694 503.156 82.5181C503.156 86.0769 473.049 83.9393 473.049 84.8281C473.049 81.86 447.187 85.1675 447.187 82.25C447.187 79.8181 435.662 70.5425 435.662 71.1762C435.662 72.2787 398.289 75.185 398.289 71.2775C398.289 69.3481 367.12 61.1994 367.12 61.7C367.12 63.0031 332.107 67.4787 332.107 64.04C332.107 62.9937 298.111 68.0562 298.111 67.0943C298.111 64.625 263.805 65.9337 263.805 69.7981C263.805 68.6544 230.916 75.7756 230.916 71.705C230.916 75.2337 201.538 62.8193 201.538 62.6956C201.538 61.3456 171.573 64.9381 171.573 58.4618C171.573 62.1293 137.094 58.1675 137.094 61.2968C137.094 60.0912 109.338 50.5831 109.338 53.2268C109.338 48.0425 74.5024 58.6718 74.5024 56.2512C74.5024 66.7737 45.0001 55.6906 45.0001 51.1625C45.0001 52.4956 16.3424 46.3906 16.3424 42.0781C16.3424 42.5206 -16.8309 44.5381 -16.8309 45.2431C-16.8309 43.1393 -51.6798 41.1312 -51.6798 43.8368C-51.6798 46.5387 -58.871 58.3756 -58.871 58.1787C-58.871 60.3162 -69.7242 69.0031 -69.7242 71.0168C-69.7242 67.8931 -61.271 85.7581 -61.271 85.2725C-61.271 84.9256 -66.3999 99.1325 -66.3999 98.4443C-66.3999 100.042 -79.9643 110.321 -79.9643 111.318C-79.9643 109.402 -71.2665 125.052 -71.2665 125.052L-76.9376 138.322L-72.7421 151.713L-75.6754 165.089L-73.6531 178.437L-71.0799 191.763L-81.7731 205.799L-63.2709 218.296L-61.5242 231.761L-51.3866 244.556L-51.5021 258.357L-36.8709 270.594L-36.2443 284.566L-26.8754 297.492L-4.25319 308.255L-6.26654 323.169L22.9646 331.841L29.0668 346.962L57.5823 352.222L86.4624 354.421L114.409 357.046L147.32 356.604L180.027 355.526L212.036 358.812L244.56 358.516L276.969 363.269L309.569 358.04L342.169 362.817L374.08 360.927L406.018 361.231L437.898 356.491L469.894 362.077L501.836 362.982L533.729 359.409L565.68 360.901L597.569 356.954L629.507 357.301L661.422 355.848L693.405 360.312L725.342 360.68L757.227 356.291L789.16 356.212L821.165 362.336L853.085 361.072L885.031 362.347L916.893 356.204L948.831 356.682L980.809 360.605L1012.71 358.111L1044.61 355.537L1076.16 359.922L1107.66 361.863L1139.16 357.963L1170.61 361.254L1202.31 355.241L1233.79 357.249L1265.09 360.481L1296.48 361.627L1328.65 357.335L1358.79 365.902L1391.04 362.617L1421.55 366.856L1452.95 367.527L1484.1 369.262L1515.96 367.94L1546.32 374.532L1578.21 372.633L1609.85 374.247L1641.45 372.521L1676.72 370.154L1711.91 367.962L1747.03 365.639L1780.4 359.934L1809.66 357.952L1839 356.127L1869.75 357.086L1898.23 353.559L1927.39 351.389L1961.92 337.301L1979.73 323.439L1983.78 309.599L1977.57 295.516L1979.28 281.636L1984.64 267.813L1991.31 253.981L1976.88 239.907L1996.57 226.156L1984 212.171L1984.43 198.271L1997.85 184.332L1976.7 170.251L1979.44 156.084L1991.46 141.779L1991.3 127.582L1973.19 113.714C1973.19 113.714 1978.03 97.8162 1978.03 99.7175C1978.03 99.3087 1975.71 86.8962 1975.71 85.9775C1975.71 85.2144 1991.42 72.5675 1991.42 72.0462C1991.42 72.5844 1987.16 54.7362 1987.16 58.1037C1987.16 56.4987 1971.39 44.3787 1971.39 45.1812C1971.39 47.6956 1939.4 52.2481 1939.4 51.8937C1939.4 52.1693 1905.34 56.6206 1905.34 59.6525C1905.34 60.4831 1876.2 56.2456 1876.2 57.815C1876.2 58.2106 1848.4 61.9325 1848.4 58.5631C1848.38 59.9187 1820.95 60.0744 1820.95 56.3094Z" fill="#191a18"/>
</svg>
